<svg width="100" height="100" fill="none" xmlns="http://www.w3.org/2000/svg"><path d="M69.245 81.466c0 5.325-4.308 9.656-9.605 9.656-5.296 0-9.604-4.33-9.604-9.656 0-5.325 4.308-9.656 9.605-9.656 5.296.032 9.604 4.33 9.604 9.656z" stroke="#C00D0D" stroke-width="2" stroke-miterlimit="10" stroke-linejoin="round"/><path d="M59.64 75.564v5.903L55.46 85.7M58.34 7.634l2.634 5.33 5.877.835-4.24 4.175 1.092 5.845-5.266-2.762-5.331 2.762.995-5.845-4.27-4.175 5.876-.835 2.633-5.33z" stroke="#C00D0D" stroke-width="2" stroke-miterlimit="10" stroke-linejoin="round"/><path d="M76.58 89.458V71.957L58.436 22.663 40.292 71.924v17.47a2.83 2.83 0 01-2.826 2.826 2.83 2.83 0 01-2.826-2.826V73.498l-5.33 5.363-5.363-5.363v16.057a2.811 2.811 0 01-3.083 2.793c-1.478-.128-2.537-1.445-2.537-2.922V73.498l-5.363 5.363-5.331-5.33v19.46M92.925 92.99V73.53l-5.363 5.363L82.2 73.53v16.056a2.811 2.811 0 01-3.083 2.794c-1.478-.128-2.537-1.445-2.537-2.922" stroke="#C00D0D" stroke-width="2" stroke-miterlimit="10" stroke-linejoin="round"/></svg>