<svg width="100" height="100" fill="none" xmlns="http://www.w3.org/2000/svg"><path d="M38.549 28.397l-8.626-20h41.374l-8.473 20M65.725 90.382H35.42c-12.367 0-22.443-10.61-22.443-23.588 0-12.061 5.573-23.359 14.886-30.382l10.687-8.015h24.274l10.153 7.252c9.695 6.947 15.42 18.473 15.42 30.763 0 13.283-10.153 23.97-22.672 23.97z" stroke="#C00D0D" stroke-width="2" stroke-miterlimit="10"/><path d="M40.688 60.763l14.198-.076h.305c3.97 0 7.176-3.282 7.176-7.404 0-4.046-3.206-7.405-7.176-7.405h-7.633V76.26m-6.87-7.481h16.03" stroke="#C00D0D" stroke-width="2" stroke-miterlimit="10"/></svg>