<svg width="101" height="102" fill="none" xmlns="http://www.w3.org/2000/svg"><path d="M92.354 87.616H9.647V66.881c0-15.551 1.222-31.102 3.665-46.465L16.415 1h69.267l3.101 19.416a295.933 295.933 0 013.666 46.465v20.735h-.094z" stroke="#C00D0D" stroke-width="2" stroke-miterlimit="10"/><path d="M28.82 101h-4.98a4.117 4.117 0 01-4.136-4.147v-9.33h13.158v9.33c0 2.356-1.786 4.147-4.042 4.147zM78.162 101H73.18a4.117 4.117 0 01-4.136-4.147v-9.33h13.158v9.33c0 2.356-1.785 4.147-4.041 4.147zM1 22.395V1h15.413M101 1H85.586M10.586 54.157h80.827M51 1v53.157M26.283 75.175c2.855 0 5.169-2.32 5.169-5.184 0-2.863-2.314-5.184-5.17-5.184-2.854 0-5.168 2.321-5.168 5.184s2.314 5.184 5.169 5.184zM75.624 75.175c2.855 0 5.17-2.32 5.17-5.184 0-2.863-2.315-5.184-5.17-5.184s-5.169 2.321-5.169 5.184 2.314 5.184 5.17 5.184z" stroke="#C00D0D" stroke-width="2" stroke-miterlimit="10"/></svg>