<svg width="100" height="100" fill="none" xmlns="http://www.w3.org/2000/svg"><path d="M84.275 60.076c-.23-2.672-1.374-9.694-7.557-14.198-4.733-3.512-9.848-3.588-11.603-3.512H27.099s-18.702 0-18.702 18.703V92.06h75.878M65.8 67.328h11.07m-53.436-3.206v13.053h69.389M30.305 24.962c0-9.618 7.787-17.328 17.329-17.328 9.618 0 17.328 7.786 17.328 17.328.076 9.618-7.71 17.404-17.328 17.404-9.542 0-17.329-7.786-17.329-17.404zM78.55 60.076c-.84-3.664-4.046-6.336-7.71-6.183-3.512.076-6.489 2.672-7.252 6.183H78.55zm-28.321 0v32.061h42.595v-32.06H50.23zm0 31.985h42.595V60H50.23v32.061z" stroke="#C00D0D" stroke-width="2" stroke-miterlimit="10"/></svg>