<svg width="37" height="38" viewBox="0 0 37 38" fill="none" xmlns="http://www.w3.org/2000/svg">
<path d="M18.3448 0.983887C8.22949 0.983887 0 9.08168 0 19.0351C0 28.9886 8.22949 37.0864 18.3448 37.0864C28.4602 37.0864 36.6897 28.9886 36.6897 19.0351C36.6897 9.08168 28.4602 0.983887 18.3448 0.983887ZM18.3448 33.4761C10.2529 33.4761 3.66897 26.9975 3.66897 19.0351C3.66897 11.0727 10.2529 4.59414 18.3448 4.59414C26.4367 4.59414 33.0207 11.0727 33.0207 19.0351C33.0207 26.9975 26.4367 33.4761 18.3448 33.4761Z" fill="#E3E4E3"/>
<path d="M20.3753 10.0095H17.0347V19.6303L22.5349 25.482L24.8967 22.9693L20.3753 18.1589V10.0095Z" fill="#E3E4E3"/>
</svg>
