<svg width="48" height="35" viewBox="0 0 48 35" fill="none" xmlns="http://www.w3.org/2000/svg">
<path d="M48 17.5518C48 17.4385 48 17.3098 47.9946 17.1605C47.9893 16.7435 47.9786 16.2749 47.9679 15.7755C47.925 14.339 47.85 12.9077 47.7321 11.5588C47.5714 9.70012 47.3357 8.15037 47.0143 6.98678C46.6751 5.77247 46.0102 4.66499 45.0861 3.77504C44.162 2.88509 43.011 2.24383 41.7482 1.91537C40.2321 1.52407 37.2643 1.28208 33.0857 1.13277C31.0982 1.06069 28.9714 1.01436 26.8446 0.988612C26.1 0.978315 25.4089 0.973166 24.7875 0.968018H23.2125C22.5911 0.973166 21.9 0.978315 21.1554 0.988612C19.0286 1.01436 16.9018 1.06069 14.9143 1.13277C10.7357 1.28723 7.7625 1.52922 6.25179 1.91537C4.98858 2.24302 3.83716 2.88401 2.91291 3.77409C1.98867 4.66417 1.32407 5.77207 0.985714 6.98678C0.658929 8.15037 0.428571 9.70012 0.267857 11.5588C0.15 12.9077 0.0749999 14.339 0.0321428 15.7755C0.0160713 16.2749 0.0107142 16.7435 0.00535706 17.1605C0.00535706 17.3098 0 17.4385 0 17.5518V17.8401C0 17.9534 -8.18233e-08 18.0821 0.00535706 18.2314C0.0107142 18.6485 0.0214285 19.117 0.0321428 19.6164C0.0749999 21.0529 0.15 22.4842 0.267857 23.8331C0.428571 25.6918 0.664286 27.2415 0.985714 28.4051C1.67143 30.8713 3.68571 32.8175 6.25179 33.4766C7.7625 33.8678 10.7357 34.1098 14.9143 34.2591C16.9018 34.3312 19.0286 34.3776 21.1554 34.4033C21.9 34.4136 22.5911 34.4188 23.2125 34.4239H24.7875C25.4089 34.4188 26.1 34.4136 26.8446 34.4033C28.9714 34.3776 31.0982 34.3312 33.0857 34.2591C37.2643 34.1047 40.2375 33.8627 41.7482 33.4766C44.3143 32.8175 46.3286 30.8765 47.0143 28.4051C47.3411 27.2415 47.5714 25.6918 47.7321 23.8331C47.85 22.4842 47.925 21.0529 47.9679 19.6164C47.9839 19.117 47.9893 18.6485 47.9946 18.2314C47.9946 18.0821 48 17.9534 48 17.8401V17.5518ZM44.1429 17.8195C44.1429 17.9276 44.1429 18.0461 44.1375 18.1851C44.1321 18.5867 44.1214 19.0295 44.1107 19.5083C44.0732 20.8778 43.9982 22.2474 43.8857 23.5191C43.7411 25.1769 43.5375 26.5362 43.2857 27.4475C42.9536 28.6368 41.9786 29.579 40.7464 29.8931C39.6214 30.1814 36.7875 30.4131 32.9357 30.5521C30.9857 30.6242 28.8857 30.6705 26.7911 30.6963C26.0571 30.7066 25.3768 30.7117 24.7661 30.7117H23.2339L21.2089 30.6963C19.1143 30.6705 17.0196 30.6242 15.0643 30.5521C11.2125 30.408 8.37321 30.1814 7.25357 29.8931C6.02143 29.5739 5.04643 28.6368 4.71429 27.4475C4.4625 26.5362 4.25893 25.1769 4.11429 23.5191C4.00179 22.2474 3.93214 20.8778 3.88929 19.5083C3.87321 19.0295 3.86786 18.5815 3.8625 18.1851C3.8625 18.0461 3.85714 17.9225 3.85714 17.8195V17.5724C3.85714 17.4643 3.85714 17.3459 3.8625 17.2068C3.86786 16.8052 3.87857 16.3625 3.88929 15.8836C3.92679 14.5141 4.00179 13.1446 4.11429 11.8728C4.25893 10.215 4.4625 8.85574 4.71429 7.94443C5.04643 6.75509 6.02143 5.81289 7.25357 5.49882C8.37857 5.2105 11.2125 4.97881 15.0643 4.8398C17.0143 4.76772 19.1143 4.72138 21.2089 4.69564C21.9429 4.68534 22.6232 4.68019 23.2339 4.68019H24.7661L26.7911 4.69564C28.8857 4.72138 30.9804 4.76772 32.9357 4.8398C36.7875 4.98396 39.6268 5.2105 40.7464 5.49882C41.9786 5.81804 42.9536 6.75509 43.2857 7.94443C43.5375 8.85574 43.7411 10.215 43.8857 11.8728C43.9982 13.1446 44.0679 14.5141 44.1107 15.8836C44.1268 16.3625 44.1321 16.8104 44.1375 17.2068C44.1375 17.3459 44.1429 17.4694 44.1429 17.5724V17.8195ZM19.2321 24.5951L31.6607 17.6445L19.2321 10.7968V24.5951Z" fill="#E3E4E3"/>
</svg>
