<svg width="37" height="37" viewBox="0 0 37 37" fill="none" xmlns="http://www.w3.org/2000/svg">
<path d="M18.5009 7.28155C20.5442 7.28155 22.2007 5.65152 22.2007 3.64078C22.2007 1.63003 20.5442 0 18.5009 0C16.4575 0 14.8011 1.63003 14.8011 3.64078C14.8011 5.65152 16.4575 7.28155 18.5009 7.28155Z" fill="#C00D0D"/>
<path d="M28.9659 11.5468C31.0092 11.5468 32.6657 9.9168 32.6657 7.90606C32.6657 5.89531 31.0092 4.26528 28.9659 4.26528C26.9225 4.26528 25.2661 5.89531 25.2661 7.90606C25.2661 9.9168 26.9225 11.5468 28.9659 11.5468Z" fill="#C00D0D"/>
<path d="M33.3002 21.8449C35.3435 21.8449 37 20.2148 37 18.2041C37 16.1933 35.3435 14.5633 33.3002 14.5633C31.2568 14.5633 29.6004 16.1933 29.6004 18.2041C29.6004 20.2148 31.2568 21.8449 33.3002 21.8449Z" fill="#C00D0D"/>
<path d="M28.9659 32.1445C31.0092 32.1445 32.6657 30.5144 32.6657 28.5037C32.6657 26.493 31.0092 24.8629 28.9659 24.8629C26.9225 24.8629 25.2661 26.493 25.2661 28.5037C25.2661 30.5144 26.9225 32.1445 28.9659 32.1445Z" fill="#C00D0D"/>
<path d="M18.5009 36.4079C20.5442 36.4079 22.2007 34.7778 22.2007 32.7671C22.2007 30.7564 20.5442 29.1263 18.5009 29.1263C16.4575 29.1263 14.8011 30.7564 14.8011 32.7671C14.8011 34.7778 16.4575 36.4079 18.5009 36.4079Z" fill="#C00D0D"/>
<path d="M8.03601 32.1426C10.0794 32.1426 11.7358 30.5126 11.7358 28.5018C11.7358 26.4911 10.0794 24.861 8.03601 24.861C5.99266 24.861 4.3362 26.4911 4.3362 28.5018C4.3362 30.5126 5.99266 32.1426 8.03601 32.1426Z" fill="#C00D0D"/>
<path d="M3.70166 21.8466C5.74604 21.8466 7.40333 20.2158 7.40333 18.204C7.40333 16.1923 5.74604 14.5614 3.70166 14.5614C1.65729 14.5614 0 16.1923 0 18.204C0 20.2158 1.65729 21.8466 3.70166 21.8466Z" fill="#C00D0D"/>
<path d="M8.03601 11.5487C10.0794 11.5487 11.7358 9.91869 11.7358 7.90794C11.7358 5.89719 10.0794 4.26716 8.03601 4.26716C5.99266 4.26716 4.3362 5.89719 4.3362 7.90794C4.3362 9.91869 5.99266 11.5487 8.03601 11.5487Z" fill="#E3E4E3"/>
</svg>
