<svg width="101" height="102" viewBox="0 0 101 102" fill="none" xmlns="http://www.w3.org/2000/svg">
<path d="M92.3538 87.6163H9.64709V66.8812C9.64709 51.3298 10.8689 35.7785 13.3125 20.4156L16.414 1H85.6809L88.7824 20.4156C91.226 35.7785 92.4478 51.3298 92.4478 66.8812V87.6163H92.3538Z" stroke="#C00D0D" stroke-width="2" stroke-miterlimit="10"/>
<path d="M28.8204 101H23.8392C21.5836 101 19.7039 99.2093 19.7039 96.853V87.5222H32.8618V96.853C32.8618 99.2093 31.076 101 28.8204 101Z" stroke="#C00D0D" stroke-width="2" stroke-miterlimit="10"/>
<path d="M78.1618 101H73.1806C70.925 101 69.0453 99.2093 69.0453 96.853V87.5222H82.2032V96.853C82.2032 99.2093 80.4175 101 78.1618 101Z" stroke="#C00D0D" stroke-width="2" stroke-miterlimit="10"/>
<path d="M1 22.3949V1H16.4135" stroke="#C00D0D" stroke-width="2" stroke-miterlimit="10"/>
<path d="M101 1H85.5864" stroke="#C00D0D" stroke-width="2" stroke-miterlimit="10"/>
<path d="M10.5863 54.1572H91.4134" stroke="#C00D0D" stroke-width="2" stroke-miterlimit="10"/>
<path d="M51.0001 1V54.1573" stroke="#C00D0D" stroke-width="2" stroke-miterlimit="10"/>
<path d="M26.2828 75.1749C29.1377 75.1749 31.452 72.8541 31.452 69.9912C31.452 67.1282 29.1377 64.8074 26.2828 64.8074C23.428 64.8074 21.1136 67.1282 21.1136 69.9912C21.1136 72.8541 23.428 75.1749 26.2828 75.1749Z" stroke="#C00D0D" stroke-width="2" stroke-miterlimit="10"/>
<path d="M75.6243 75.1749C78.4791 75.1749 80.7934 72.8541 80.7934 69.9912C80.7934 67.1282 78.4791 64.8074 75.6243 64.8074C72.7694 64.8074 70.4551 67.1282 70.4551 69.9912C70.4551 72.8541 72.7694 75.1749 75.6243 75.1749Z" stroke="#C00D0D" stroke-width="2" stroke-miterlimit="10"/>
</svg>
