<svg width="100" height="100" viewBox="0 0 100 100" fill="none" xmlns="http://www.w3.org/2000/svg">
<path d="M84.2748 60.0763C84.0458 57.4045 82.9008 50.3816 76.7176 45.8778C71.9848 42.3664 66.8703 42.29 65.1145 42.3664H27.0993C27.0993 42.3664 8.39697 42.3664 8.39697 61.0687V92.061H84.2748M65.8015 67.3282H76.8702M23.4351 64.1221V77.1755H50.229H92.8244M30.3054 24.9618C30.3054 15.3435 38.0916 7.63354 47.6336 7.63354C57.2519 7.63354 64.9619 15.4198 64.9619 24.9618C65.0382 34.5801 57.2519 42.3664 47.6336 42.3664C38.0916 42.3664 30.3054 34.5801 30.3054 24.9618ZM78.5496 60.0763C77.7099 56.4122 74.5038 53.7404 70.8397 53.8931C67.3283 53.9694 64.3512 56.5648 63.5878 60.0763H78.5496ZM50.229 60.0763V92.1374H92.8244V60.0763H50.229ZM50.229 92.061H92.8244V60H50.229V92.061Z" stroke="#C00D0D" stroke-width="2" stroke-miterlimit="10"/>
</svg>
