<svg width="100" height="100" viewBox="0 0 100 100" fill="none" xmlns="http://www.w3.org/2000/svg">
<path d="M69.2451 81.4661C69.2451 86.7913 64.9373 91.1218 59.6405 91.1218C54.3436 91.1218 50.0359 86.7913 50.0359 81.4661C50.0359 76.1408 54.3436 71.8102 59.6405 71.8102C64.9373 71.8422 69.2451 76.1408 69.2451 81.4661Z" stroke="#C00D0D" stroke-width="2" stroke-miterlimit="10" stroke-linejoin="round"/>
<path d="M59.6402 75.5638V81.4665L55.4601 85.7009" stroke="#C00D0D" stroke-width="2" stroke-miterlimit="10" stroke-linejoin="round"/>
<path d="M58.3405 7.63354L60.9737 12.9643L66.8505 13.7993L62.6115 17.974L63.7034 23.8186L58.4368 21.0569L53.106 23.8186L54.1015 17.974L49.8304 13.7993L55.7072 12.9643L58.3405 7.63354Z" stroke="#C00D0D" stroke-width="2" stroke-miterlimit="10" stroke-linejoin="round"/>
<path d="M76.58 89.4582V71.9565L58.4361 22.6627L40.2921 71.9244V89.394C40.2921 90.9354 39.0397 92.22 37.4661 92.22C35.9247 92.22 34.6402 90.9675 34.6402 89.394V73.498L29.3094 78.8609L23.9465 73.498V89.5546C23.9465 91.1923 22.5335 92.509 20.8636 92.3484C19.3864 92.22 18.3266 90.9033 18.3266 89.4261V73.498L12.9637 78.8609L7.63293 73.5301V92.9907" stroke="#C00D0D" stroke-width="2" stroke-miterlimit="10" stroke-linejoin="round"/>
<path d="M92.9253 92.9904V73.5298L87.5624 78.8927L82.1995 73.5298V89.5864C82.1995 91.2242 80.7865 92.5408 79.1167 92.3802C77.6395 92.2518 76.5797 90.9351 76.5797 89.4579" stroke="#C00D0D" stroke-width="2" stroke-miterlimit="10" stroke-linejoin="round"/>
</svg>
