<svg width="100" height="100" viewBox="0 0 100 100" fill="none" xmlns="http://www.w3.org/2000/svg">
<path d="M38.5489 28.397L29.923 8.39697H71.297L62.8237 28.397" stroke="#C00D0D" stroke-width="2" stroke-miterlimit="10"/>
<path d="M65.7251 90.3818H35.4198C23.0534 90.3818 12.9771 79.7711 12.9771 66.794C12.9771 54.733 18.5496 43.4353 27.8625 36.4124L38.5496 28.3971H62.8244L72.9771 35.649C82.6717 42.5956 88.3969 54.1223 88.3969 66.4124C88.3969 79.6948 78.2442 90.3818 65.7251 90.3818Z" stroke="#C00D0D" stroke-width="2" stroke-miterlimit="10"/>
<path d="M40.6876 60.7634L54.8861 60.6871C54.9624 60.6871 55.1151 60.6871 55.1914 60.6871C59.1609 60.6871 62.367 57.4046 62.367 53.2825C62.367 49.2367 59.1609 45.8779 55.1914 45.8779H54.8861H47.5579V76.2596M40.6876 68.7787H56.7182" stroke="#C00D0D" stroke-width="2" stroke-miterlimit="10"/>
</svg>
