<svg width="48" height="35" fill="none" xmlns="http://www.w3.org/2000/svg"><path d="M48 17.552c0-.113 0-.242-.005-.392a74.527 74.527 0 00-.262-5.602c-.162-1.858-.397-3.408-.719-4.571a7.123 7.123 0 00-1.928-3.212 7.549 7.549 0 00-3.338-1.86c-1.516-.39-4.484-.633-8.662-.782a262.183 262.183 0 00-6.241-.144C26.1.979 25.409.973 24.788.968h-1.576c-.62.005-1.312.01-2.057.02-2.126.026-4.253.073-6.24.145-4.18.154-7.152.396-8.663.782a7.54 7.54 0 00-3.34 1.86A7.114 7.114 0 00.987 6.986C.659 8.15.429 9.7.268 11.559a74.528 74.528 0 00-.236 4.216c-.016.5-.021.969-.027 1.385 0 .15-.005.279-.005.392v.288c0 .113 0 .242.005.391a74.528 74.528 0 00.262 5.602c.162 1.859.397 3.409.719 4.572.685 2.466 2.7 4.413 5.266 5.072 1.51.39 4.484.633 8.662.782 1.988.072 4.115.119 6.241.144.745.01 1.436.016 2.057.02h1.576c.62-.004 1.312-.01 2.057-.02 2.126-.025 4.253-.072 6.24-.144 4.18-.154 7.152-.396 8.663-.782 2.566-.66 4.58-2.6 5.266-5.072.327-1.164.557-2.713.718-4.572.118-1.349.193-2.78.236-4.217.016-.499.021-.968.027-1.385 0-.149.005-.278.005-.39v-.29zm-3.857.268c0 .108 0 .226-.005.365-.006.402-.017.845-.027 1.323a66.932 66.932 0 01-.225 4.011c-.145 1.658-.349 3.017-.6 3.929-.332 1.189-1.307 2.131-2.54 2.445-1.125.288-3.959.52-7.81.66a253.401 253.401 0 01-8.17.159h-1.532l-2.025-.016c-2.095-.026-4.19-.072-6.145-.144-3.851-.144-6.69-.37-7.81-.659-1.233-.32-2.208-1.256-2.54-2.445-.252-.912-.455-2.271-.6-3.929a71.695 71.695 0 01-.225-4.01c-.016-.48-.021-.928-.026-1.324 0-.139-.006-.262-.006-.365v-.248c0-.108 0-.226.005-.365.006-.402.017-.845.027-1.323.038-1.37.113-2.74.225-4.011.145-1.658.349-3.017.6-3.929.332-1.189 1.307-2.131 2.54-2.445 1.125-.288 3.959-.52 7.81-.66a253.202 253.202 0 018.17-.159h1.532l2.025.016c2.095.025 4.19.072 6.145.144 3.852.144 6.69.37 7.81.659 1.233.319 2.208 1.256 2.54 2.445.252.912.455 2.271.6 3.929.112 1.272.182 2.641.225 4.01.016.48.021.927.027 1.324 0 .139.005.262.005.365v.248zm-24.91 6.775l12.428-6.95-12.429-6.848v13.798z" fill="#E3E4E3"/></svg>