<svg width="37" height="37" fill="none" xmlns="http://www.w3.org/2000/svg"><path d="M18.5 7.282c2.044 0 3.7-1.63 3.7-3.641S20.545 0 18.5 0c-2.043 0-3.699 1.63-3.699 3.64 0 2.012 1.656 3.642 3.7 3.642zM28.966 11.547c2.043 0 3.7-1.63 3.7-3.64 0-2.012-1.657-3.642-3.7-3.642-2.044 0-3.7 1.63-3.7 3.641 0 2.01 1.657 3.64 3.7 3.64zM33.3 21.845c2.044 0 3.7-1.63 3.7-3.64 0-2.012-1.657-3.642-3.7-3.642s-3.7 1.63-3.7 3.641c0 2.01 1.657 3.64 3.7 3.64zM28.966 32.145c2.043 0 3.7-1.63 3.7-3.641s-1.657-3.641-3.7-3.641c-2.044 0-3.7 1.63-3.7 3.64 0 2.011 1.657 3.642 3.7 3.642zM18.5 36.408c2.044 0 3.7-1.63 3.7-3.64 0-2.012-1.656-3.642-3.7-3.642-2.043 0-3.699 1.63-3.699 3.641 0 2.01 1.656 3.64 3.7 3.64zM8.036 32.143c2.043 0 3.7-1.63 3.7-3.641 0-2.01-1.657-3.641-3.7-3.641s-3.7 1.63-3.7 3.64c0 2.012 1.657 3.642 3.7 3.642zM3.702 21.847c2.044 0 3.701-1.631 3.701-3.643 0-2.012-1.657-3.643-3.701-3.643C1.657 14.561 0 16.192 0 18.204c0 2.012 1.657 3.643 3.702 3.643z" fill="#C00D0D"/><path d="M8.036 11.549c2.043 0 3.7-1.63 3.7-3.641 0-2.01-1.657-3.64-3.7-3.64s-3.7 1.63-3.7 3.64c0 2.01 1.657 3.64 3.7 3.64z" fill="#E3E4E3"/></svg>