<?xml version="1.0" encoding="utf-8"?><svg viewBox="0 0 56 56" xmlns="http://www.w3.org/2000/svg" xmlns:xlink="http://www.w3.org/1999/xlink"><style>:root>svg{display:none}:root>svg:target{display:block}</style><svg fill="none" viewBox="0 0 40 40" id="VK" xmlns="http://www.w3.org/2000/svg"><g clip-path="url(#aclip0_8_296)"><path d="M37.192 2.808C34.375 0 29.85 0 20.833 0h-1.666C10.15 0 5.625 0 2.808 2.808-.008 5.617 0 10.15 0 19.167v1.666c0 9.017 0 13.542 2.808 16.359C5.617 40.008 10.15 40 19.167 40h1.666c9.05 0 13.575 0 16.392-2.808C40.042 34.383 40 29.85 40 20.833v-1.666c0-9.017 0-13.542-2.808-16.359zM28.7 28.817a8.224 8.224 0 00-6.9-5.95v5.95h-.517c-9.116 0-14.316-6.25-14.533-16.667h4.567c.15 7.633 3.516 10.833 6.183 11.533V12.167h4.3v6.583c2.633-.283 5.4-3.283 6.333-6.583h4.3A12.7 12.7 0 0126.6 20.5a13.158 13.158 0 016.85 8.333l-4.75-.016z" fill="#C4C4C4"/></g><defs><clipPath id="aclip0_8_296"><path fill="#fff" d="M0 0h40v40H0z"/></clipPath></defs></svg><svg fill="none" viewBox="0 0 56 56" id="arrow__slider" xmlns="http://www.w3.org/2000/svg"><path fill-rule="evenodd" clip-rule="evenodd" d="M37.126 27.492L29.6 19.724l.68-.724L39 28l-8.722 9-.679-.724 7.527-7.768H17v-1.016h20.126z" fill="#C00D0D"/><path fill-rule="evenodd" clip-rule="evenodd" d="M28 55c14.912 0 27-12.088 27-27S42.912 1 28 1 1 13.088 1 28s12.088 27 27 27zm0 1c15.464 0 28-12.536 28-28S43.464 0 28 0 0 12.536 0 28s12.536 28 28 28z" fill="#C00D0D"/></svg><svg fill="none" viewBox="0 0 12 7" id="arrow_menu" xmlns="http://www.w3.org/2000/svg"><path d="M1 1l4.824 5.25L10.647 1" stroke="#C00D0D"/></svg></svg>