<svg width="40" height="40" viewBox="0 0 40 40" fill="none" xmlns="http://www.w3.org/2000/svg">
<g clip-path="url(#clip0_8_296)">
<path d="M37.1917 2.80833C34.375 0 29.85 0 20.8333 0H19.1667C10.15 0 5.625 0 2.80833 2.80833C-0.00833333 5.61667 2.8837e-07 10.15 2.8837e-07 19.1667V20.8333C2.8837e-07 29.85 1.98682e-07 34.375 2.80833 37.1917C5.61667 40.0083 10.15 40 19.1667 40H20.8333C29.8833 40 34.4083 40 37.225 37.1917C40.0417 34.3833 40 29.85 40 20.8333V19.1667C40 10.15 40 5.625 37.1917 2.80833ZM28.7 28.8167C28.2642 27.2553 27.3768 25.8576 26.1491 24.799C24.9215 23.7404 23.4085 23.0681 21.8 22.8667V28.8167H21.2833C12.1667 28.8167 6.96667 22.5667 6.75 12.15H11.3167C11.4667 19.7833 14.8333 22.9833 17.5 23.6833V12.1667H21.8V18.75C24.4333 18.4667 27.2 15.4667 28.1333 12.1667H32.4333C32.0878 13.8827 31.3913 15.5088 30.3874 16.9429C29.3836 18.3769 28.0941 19.588 26.6 20.5C28.2658 21.3262 29.7375 22.496 30.9182 23.9324C32.0989 25.3688 32.9618 27.0392 33.45 28.8333L28.7 28.8167Z" fill="#C4C4C4"/>
</g>
<defs>
<clipPath id="clip0_8_296">
<rect width="40" height="40" fill="white"/>
</clipPath>
</defs>
</svg>
